<?xml version="1.0" encoding="utf-8"?>
<!-- Generator: Adobe Illustrator 26.0.1, SVG Export Plug-In . SVG Version: 6.00 Build 0)  -->
<svg version="1.1" id="Camada_1" xmlns="http://www.w3.org/2000/svg" xmlns:xlink="http://www.w3.org/1999/xlink" x="0px" y="0px"
	 viewBox="0 0 1863.5 715.8" style="enable-background:new 0 0 1863.5 715.8;" xml:space="preserve">
<style type="text/css">
	.st0{fill:#FFFFFF;}
</style>
<g>
	<g>
		<path class="st0" d="M594.8,285.4h23.4l81.1,114.8c9.6,13.7,25.4,22,45.4,22h74.9l-88-116.8c-9-12-18-19.8-31.2-25.7
			c51.3-11.8,95.1-48.7,95.1-117.2c0-81.1-69.4-121-172.5-121c-37.8,0-75.6,3.4-114.8,9.6v371.2h86.6V285.4z M626.4,116.3
			c46.7,0,79,11,79,47.4c0,31.6-22,50.2-70.8,50.2h-39.9v-96.2C605.5,116.8,616.2,116.3,626.4,116.3z"/>
		<path class="st0" d="M1130.2,44.9c-23.4,0-44.7,15.1-44.7,48.1v157.9c-47.4-67.1-90.3-128.2-132.7-182.7
			c-12.4-15.8-30.9-23.4-53.6-23.4h-49.5v377.3h86.6V190.1c62.2,78.4,102.4,139.6,160.1,232.1h75.6V44.9H1130.2z"/>
		<path class="st0" d="M997.6,482.7c-187,81.1-262.6,103.8-392.5,103.1c-129.9-0.7-205.5-22-392.5-103.1
			c-31.6-13.7-72.2-24.7-108.6-24.7H38.7v86.6l58.4,0.7c25.4,0,55.7,7.6,79.7,17.9C370,644.9,449.1,673.8,605.1,673.8
			s235.1-28.9,428.2-110.7c24.1-10.3,54.3-17.9,79.7-17.9l59.1-0.7v-86.6h-66C1069.7,457.9,1029.2,468.9,997.6,482.7z"/>
		<path class="st0" d="M134.3,192.4c26.9,55.5,54.5,116.6,81.1,173.4H280c25-58.8,51.8-117.1,79.7-176.9
			c5.5,73.2,9.7,164.7,10.3,233.3h88.7c-4.8-112.7-17.2-270.8-30.2-377.3h-46.1c-22.7,0-40.6,9.6-49.5,29.6
			C314.8,113,275,197.2,249.7,252.5c-25-55.3-63.8-132.3-87.3-178.1c-11-19.9-24.7-29.6-47.4-29.6H69
			C54.6,151.4,44.2,309.5,38.7,422.2h85.9C125.3,356.5,129.1,269.7,134.3,192.4z"/>
	</g>
	<g>
		<path class="st0" d="M1273,253.5c1.4,2.5,3,5.5,4.8,9.1c1.8,3.6,3.6,7.4,5.4,11.4c1.8,4,3.7,8,5.5,12.1c1.8,4.1,3.5,7.9,5,11.4
			c1.5-3.5,3.1-7.3,4.9-11.4c1.8-4.1,3.6-8.1,5.4-12.1c1.8-4,3.6-7.8,5.4-11.4c1.8-3.6,3.4-6.7,4.8-9.1h11.2
			c0.6,5,1.2,10.3,1.7,15.9c0.5,5.6,1,11.3,1.5,17.2c0.4,5.9,0.8,11.8,1.2,17.7c0.4,5.9,0.7,11.7,1,17.4h-12.2
			c-0.3-7.9-0.6-16.1-1-24.5c-0.4-8.4-0.9-16.5-1.7-24.4c-0.7,1.5-1.6,3.3-2.6,5.4c-1,2.1-2,4.4-3.1,6.8c-1.1,2.5-2.2,5-3.4,7.6
			c-1.1,2.6-2.3,5.2-3.3,7.6s-2.1,4.8-3,6.9c-0.9,2.1-1.7,3.9-2.4,5.5h-9.2c-0.7-1.5-1.4-3.3-2.4-5.5c-0.9-2.2-1.9-4.5-3-6.9
			s-2.2-5-3.3-7.6c-1.1-2.6-2.3-5.1-3.4-7.6c-1.1-2.4-2.2-4.7-3.1-6.8c-1-2.1-1.8-3.9-2.6-5.4c-0.7,7.9-1.3,16-1.7,24.4
			c-0.4,8.4-0.7,16.6-1,24.5h-12.2c0.3-5.6,0.6-11.5,1-17.5c0.4-6,0.8-12,1.2-17.9c0.4-5.9,0.9-11.7,1.5-17.3
			c0.5-5.6,1.1-10.7,1.7-15.4H1273z"/>
		<path class="st0" d="M1357.7,255.2c0,2.2-0.7,4-2.2,5.3c-1.4,1.3-3.1,2-5.1,2c-2,0-3.8-0.7-5.2-2c-1.4-1.3-2.2-3.1-2.2-5.3
			c0-2.3,0.7-4.1,2.2-5.4c1.4-1.3,3.2-2,5.2-2c2,0,3.7,0.7,5.1,2C1356.9,251.1,1357.7,252.9,1357.7,255.2z M1356.4,321.6h-11.9
			v-51.4h11.9V321.6z"/>
		<path class="st0" d="M1371.5,271.9c2.3-0.7,5.3-1.3,8.9-1.9c3.7-0.6,7.7-0.9,12.2-0.9c4.2,0,7.7,0.6,10.5,1.7
			c2.8,1.1,5.1,2.8,6.7,4.8c1.7,2.1,2.9,4.6,3.5,7.5c0.7,2.9,1,6.1,1,9.6v28.9h-11.9v-27c0-2.8-0.2-5.1-0.5-7
			c-0.4-1.9-1-3.5-1.8-4.7c-0.8-1.2-1.9-2.1-3.3-2.7c-1.4-0.6-3.1-0.8-5.2-0.8c-1.5,0-3.1,0.1-4.7,0.3c-1.6,0.2-2.9,0.4-3.6,0.5
			v41.5h-11.9V271.9z"/>
		<path class="st0" d="M1426.2,296.2c0-4.5,0.7-8.5,2-11.9c1.3-3.4,3.1-6.2,5.4-8.5c2.2-2.3,4.8-4,7.7-5.1c2.9-1.1,5.8-1.7,8.8-1.7
			c7.1,0,12.6,2.2,16.6,6.6c4,4.4,5.9,10.9,5.9,19.7c0,0.7,0,1.4,0,2.2c0,0.8-0.1,1.6-0.1,2.2h-33.9c0.3,4.1,1.8,7.3,4.4,9.6
			c2.6,2.3,6.3,3.4,11.3,3.4c2.9,0,5.5-0.3,7.9-0.8c2.4-0.5,4.3-1.1,5.7-1.7l1.6,9.7c-0.7,0.3-1.6,0.7-2.7,1c-1.1,0.4-2.5,0.7-3.9,1
			c-1.5,0.3-3.1,0.5-4.8,0.7c-1.7,0.2-3.4,0.3-5.2,0.3c-4.5,0-8.5-0.7-11.8-2s-6.1-3.2-8.3-5.6c-2.2-2.4-3.8-5.2-4.8-8.5
			C1426.7,303.6,1426.2,300,1426.2,296.2z M1460.7,290.8c0-1.6-0.2-3.2-0.7-4.7c-0.5-1.5-1.1-2.8-2-3.8c-0.9-1.1-2-1.9-3.2-2.6
			c-1.3-0.6-2.8-0.9-4.6-0.9c-1.8,0-3.4,0.3-4.8,1c-1.4,0.7-2.5,1.6-3.5,2.7c-1,1.1-1.7,2.4-2.2,3.8c-0.5,1.4-0.9,2.9-1.1,4.4
			H1460.7z"/>
		<path class="st0" d="M1514.5,280.9c-1-0.3-2.3-0.7-4.1-1c-1.7-0.4-3.8-0.5-6-0.5c-1.3,0-2.7,0.1-4.2,0.4c-1.5,0.3-2.5,0.5-3.1,0.7
			v41.2h-11.9v-49c2.3-0.9,5.2-1.7,8.6-2.4c3.4-0.8,7.3-1.1,11.5-1.1c0.8,0,1.7,0,2.8,0.1c1,0.1,2.1,0.2,3.1,0.4
			c1,0.2,2.1,0.4,3,0.6c1,0.2,1.8,0.4,2.4,0.6L1514.5,280.9z"/>
		<path class="st0" d="M1541.9,268.9c3.9,0,7.2,0.5,9.9,1.5c2.7,1,4.8,2.4,6.4,4.1c1.6,1.8,2.8,3.9,3.4,6.4c0.7,2.5,1,5.3,1,8.3
			v31.2c-1.8,0.4-4.6,0.9-8.3,1.4c-3.7,0.6-7.9,0.8-12.5,0.8c-3.1,0-5.9-0.3-8.5-0.9c-2.6-0.6-4.7-1.5-6.5-2.9
			c-1.8-1.3-3.2-3-4.2-5.1c-1-2.1-1.5-4.7-1.5-7.8c0-2.9,0.6-5.4,1.7-7.5c1.1-2,2.7-3.7,4.7-5c2-1.3,4.2-2.2,6.8-2.8
			c2.6-0.6,5.3-0.8,8.1-0.8c1.3,0,2.7,0.1,4.1,0.2c1.4,0.2,3,0.4,4.6,0.8v-2c0-1.4-0.2-2.7-0.5-3.9c-0.3-1.2-0.9-2.3-1.7-3.3
			c-0.8-0.9-1.9-1.7-3.2-2.2c-1.3-0.5-3-0.8-5.1-0.8c-2.8,0-5.3,0.2-7.6,0.6c-2.3,0.4-4.2,0.9-5.6,1.4l-1.5-9.6
			c1.5-0.5,3.7-1,6.6-1.6C1535.5,269.2,1538.6,268.9,1541.9,268.9z M1542.9,313.3c3.7,0,6.5-0.2,8.4-0.6v-13.2
			c-0.7-0.2-1.6-0.4-2.9-0.6c-1.2-0.2-2.6-0.3-4.1-0.3c-1.3,0-2.6,0.1-4,0.3c-1.3,0.2-2.6,0.6-3.6,1.1c-1.1,0.5-2,1.3-2.6,2.2
			c-0.7,1-1,2.1-1,3.6c0,2.8,0.9,4.8,2.7,5.9S1539.9,313.3,1542.9,313.3z"/>
		<path class="st0" d="M1600.9,325.5c2.1,1,3.6,2.1,4.4,3.3c0.8,1.2,1.2,2.8,1.2,4.6c0,2.3-1,4.3-2.9,5.9c-2,1.6-4.9,2.5-8.8,2.5
			c-3.1,0-5.9-0.4-8.4-1.3l1.4-7.1c0.7,0.2,1.5,0.4,2.6,0.7c1,0.3,2.1,0.4,3.2,0.4c1.1,0,2-0.2,2.6-0.6c0.6-0.4,0.9-1,0.9-1.8
			c0-1-0.5-1.8-1.4-2.3c-0.9-0.5-1.8-0.9-2.8-1.2l-1-0.3c0.3-0.9,0.6-1.8,1.1-2.9c0.5-1.1,0.9-2.1,1.4-3c-3.4-0.6-6.4-1.6-8.8-3.1
			c-2.5-1.5-4.6-3.4-6.2-5.8c-1.6-2.3-2.9-5-3.7-7.9c-0.8-2.9-1.2-6.2-1.2-9.6c0-3.8,0.6-7.4,1.8-10.7c1.2-3.3,2.9-6.2,5.1-8.6
			c2.2-2.4,4.9-4.3,8-5.7c3.1-1.4,6.7-2.1,10.6-2.1c4.9,0,9.4,0.9,13.8,2.7l-2.6,9.7c-1.4-0.6-2.9-1.1-4.7-1.5
			c-1.7-0.4-3.6-0.6-5.6-0.6c-4.7,0-8.2,1.5-10.6,4.4c-2.4,2.9-3.6,7-3.6,12.3c0,5.1,1.1,9.2,3.4,12.1c2.3,3,6.2,4.5,11.6,4.5
			c2,0,4-0.2,6-0.6c2-0.4,3.7-0.9,5.1-1.5l1.7,9.8c-1.2,0.6-2.9,1.1-5.2,1.6c-2.3,0.5-4.7,0.8-7.2,0.9c-0.3,0.5-0.5,1-0.7,1.5
			C1601.2,324.7,1601,325.1,1600.9,325.5z"/>
		<path class="st0" d="M1640.8,268.9c3.9,0,7.2,0.5,9.9,1.5c2.7,1,4.8,2.4,6.4,4.1c1.6,1.8,2.8,3.9,3.4,6.4c0.7,2.5,1,5.3,1,8.3
			v31.2c-1.8,0.4-4.6,0.9-8.3,1.4c-3.7,0.6-7.9,0.8-12.5,0.8c-3.1,0-5.9-0.3-8.5-0.9c-2.6-0.6-4.7-1.5-6.5-2.9
			c-1.8-1.3-3.2-3-4.2-5.1c-1-2.1-1.5-4.7-1.5-7.8c0-2.9,0.6-5.4,1.7-7.5c1.1-2,2.7-3.7,4.7-5c2-1.3,4.2-2.2,6.8-2.8
			c2.6-0.6,5.3-0.8,8.1-0.8c1.3,0,2.7,0.1,4.1,0.2c1.4,0.2,3,0.4,4.6,0.8v-2c0-1.4-0.2-2.7-0.5-3.9c-0.3-1.2-0.9-2.3-1.7-3.3
			c-0.8-0.9-1.9-1.7-3.2-2.2c-1.3-0.5-3-0.8-5.1-0.8c-2.8,0-5.3,0.2-7.6,0.6c-2.3,0.4-4.2,0.9-5.6,1.4l-1.5-9.6
			c1.5-0.5,3.7-1,6.6-1.6C1634.4,269.2,1637.5,268.9,1640.8,268.9z M1658.2,254.8c-0.6,1.1-1.4,2.1-2.3,3c-0.9,1-2,1.8-3.1,2.4
			c-1.2,0.7-2.5,1-3.9,1c-1.2,0-2.3-0.2-3.3-0.5c-1-0.4-2.1-0.8-3.1-1.2c-1-0.5-2-0.9-2.9-1.2c-1-0.4-1.9-0.5-2.8-0.5
			c-1.2,0-2.3,0.4-3.2,1.3c-0.9,0.9-1.6,1.8-2.1,2.9l-6-3.5c0.3-0.9,0.8-1.9,1.4-3c0.6-1.1,1.4-2.1,2.4-3c0.9-0.9,2-1.8,3.2-2.4
			c1.2-0.7,2.5-1,3.9-1c1.2,0,2.3,0.2,3.3,0.6c1,0.4,2.1,0.8,3.1,1.2c1,0.4,2,0.8,2.9,1.2c0.9,0.4,1.9,0.6,2.8,0.6
			c1.2,0,2.3-0.4,3.2-1.3c0.9-0.9,1.6-1.9,2.1-3l6,3.5C1659.3,252.7,1658.8,253.7,1658.2,254.8z M1641.8,313.3
			c3.7,0,6.5-0.2,8.4-0.6v-13.2c-0.7-0.2-1.6-0.4-2.9-0.6c-1.2-0.2-2.6-0.3-4.1-0.3c-1.3,0-2.6,0.1-4,0.3c-1.3,0.2-2.6,0.6-3.6,1.1
			c-1.1,0.5-2,1.3-2.6,2.2c-0.7,1-1,2.1-1,3.6c0,2.8,0.9,4.8,2.7,5.9S1638.8,313.3,1641.8,313.3z"/>
		<path class="st0" d="M1722.7,295.9c0,4.1-0.6,7.8-1.8,11.1c-1.2,3.3-2.9,6.2-5,8.6c-2.2,2.4-4.8,4.2-7.8,5.5s-6.4,2-10.1,2
			c-3.7,0-7-0.7-10-2c-3-1.3-5.6-3.1-7.8-5.5c-2.2-2.4-3.9-5.2-5.1-8.6c-1.2-3.3-1.8-7-1.8-11.1c0-4.1,0.6-7.8,1.8-11.1
			c1.2-3.3,2.9-6.1,5.1-8.5c2.2-2.4,4.8-4.2,7.8-5.5c3-1.3,6.3-1.9,9.9-1.9c3.6,0,6.9,0.6,10,1.9c3,1.3,5.7,3.1,7.8,5.5
			s3.8,5.2,5.1,8.5C1722.1,288.1,1722.7,291.8,1722.7,295.9z M1710.5,295.9c0-5.1-1.1-9.2-3.3-12.1c-2.2-3-5.3-4.5-9.2-4.5
			c-3.9,0-7,1.5-9.2,4.5c-2.2,3-3.3,7-3.3,12.1c0,5.2,1.1,9.3,3.3,12.3c2.2,3,5.3,4.5,9.2,4.5c3.9,0,7-1.5,9.2-4.5
			C1709.4,305.1,1710.5,301,1710.5,295.9z"/>
		<path class="st0" d="M1276.8,353.4c9.8,0,17.4,1.8,22.6,5.4c5.2,3.6,7.8,9.1,7.8,16.5c0,9.2-4.6,15.5-13.7,18.8
			c1.2,1.5,2.7,3.3,4.2,5.5c1.6,2.2,3.2,4.5,4.8,7c1.6,2.5,3.2,5.1,4.7,7.8c1.5,2.7,2.9,5.3,4,7.8h-13.9c-1.2-2.4-2.6-4.7-4-7.1
			c-1.4-2.4-2.9-4.7-4.4-7c-1.5-2.3-2.9-4.4-4.4-6.4c-1.4-2-2.8-3.8-4-5.4c-0.9,0.1-1.7,0.1-2.4,0.1c-0.7,0-1.3,0-1.9,0h-6v25.8
			h-12.4V355c3-0.7,6.2-1.1,9.6-1.3C1271.1,353.5,1274.1,353.4,1276.8,353.4z M1277.7,364.1c-2.6,0-5,0.1-7.3,0.3v22h5.4
			c3,0,5.7-0.2,8-0.5c2.3-0.3,4.2-0.9,5.8-1.8c1.5-0.9,2.7-2,3.5-3.4c0.8-1.4,1.2-3.3,1.2-5.5c0-2.1-0.4-3.9-1.2-5.3
			c-0.8-1.4-1.9-2.6-3.4-3.4c-1.5-0.9-3.2-1.5-5.3-1.8C1282.4,364.3,1280.1,364.1,1277.7,364.1z"/>
		<path class="st0" d="M1333.7,355.7c0,2.2-0.7,4-2.2,5.3c-1.4,1.3-3.1,2-5.1,2c-2,0-3.8-0.7-5.2-2c-1.4-1.3-2.2-3.1-2.2-5.3
			c0-2.3,0.7-4.1,2.2-5.4c1.4-1.3,3.2-2,5.2-2c2,0,3.7,0.7,5.1,2C1332.9,351.6,1333.7,353.4,1333.7,355.7z M1332.4,422.2h-11.9
			v-51.4h11.9V422.2z"/>
		<path class="st0" d="M1394,396.4c0,4.1-0.6,7.8-1.8,11.1c-1.2,3.3-2.9,6.2-5,8.6c-2.2,2.4-4.8,4.2-7.8,5.5s-6.4,2-10.1,2
			c-3.7,0-7-0.7-10-2c-3-1.3-5.6-3.1-7.8-5.5c-2.2-2.4-3.9-5.2-5.1-8.6c-1.2-3.3-1.8-7-1.8-11.1c0-4.1,0.6-7.8,1.8-11.1
			c1.2-3.3,2.9-6.1,5.1-8.5c2.2-2.4,4.8-4.2,7.8-5.5c3-1.3,6.3-1.9,9.9-1.9c3.6,0,6.9,0.6,10,1.9c3,1.3,5.7,3.1,7.8,5.5
			s3.8,5.2,5.1,8.5C1393.4,388.7,1394,392.4,1394,396.4z M1381.8,396.4c0-5.1-1.1-9.2-3.3-12.1c-2.2-3-5.3-4.5-9.2-4.5
			c-3.9,0-7,1.5-9.2,4.5c-2.2,3-3.3,7-3.3,12.1c0,5.2,1.1,9.3,3.3,12.3c2.2,3,5.3,4.5,9.2,4.5c3.9,0,7-1.5,9.2-4.5
			C1380.7,405.7,1381.8,401.6,1381.8,396.4z"/>
		<path class="st0" d="M1472.7,420.6c-2.4,0.7-5.3,1.4-8.9,2c-3.6,0.6-7.3,0.9-11.3,0.9c-4.1,0-7.7-0.6-10.9-1.9
			c-3.2-1.2-5.9-3-8.2-5.4c-2.3-2.3-4-5.1-5.2-8.5c-1.2-3.3-1.8-7-1.8-11.2c0-4.1,0.5-7.8,1.5-11.1c1-3.3,2.5-6.1,4.5-8.5
			c2-2.4,4.4-4.2,7.2-5.5c2.8-1.3,6.1-1.9,9.7-1.9c2.5,0,4.7,0.3,6.6,0.9c1.9,0.6,3.5,1.2,4.9,2v-24.7l11.9-2V420.6z M1438.6,396.3
			c0,5.2,1.2,9.4,3.7,12.3c2.5,3,5.9,4.5,10.3,4.5c1.9,0,3.5-0.1,4.9-0.2c1.3-0.2,2.4-0.3,3.3-0.5v-29.5c-1-0.7-2.4-1.4-4.2-2
			c-1.7-0.6-3.6-0.9-5.6-0.9c-4.3,0-7.5,1.5-9.5,4.4C1439.6,387.3,1438.6,391.3,1438.6,396.3z"/>
		<path class="st0" d="M1534.3,396.4c0,4.1-0.6,7.8-1.8,11.1c-1.2,3.3-2.9,6.2-5,8.6c-2.2,2.4-4.8,4.2-7.8,5.5s-6.4,2-10.1,2
			c-3.7,0-7-0.7-10-2c-3-1.3-5.6-3.1-7.8-5.5c-2.2-2.4-3.9-5.2-5.1-8.6c-1.2-3.3-1.8-7-1.8-11.1c0-4.1,0.6-7.8,1.8-11.1
			c1.2-3.3,2.9-6.1,5.1-8.5c2.2-2.4,4.8-4.2,7.8-5.5c3-1.3,6.3-1.9,9.9-1.9c3.6,0,6.9,0.6,10,1.9c3,1.3,5.7,3.1,7.8,5.5
			s3.8,5.2,5.1,8.5C1533.7,388.7,1534.3,392.4,1534.3,396.4z M1522.1,396.4c0-5.1-1.1-9.2-3.3-12.1c-2.2-3-5.3-4.5-9.2-4.5
			c-3.9,0-7,1.5-9.2,4.5c-2.2,3-3.3,7-3.3,12.1c0,5.2,1.1,9.3,3.3,12.3c2.2,3,5.3,4.5,9.2,4.5c3.9,0,7-1.5,9.2-4.5
			C1521,405.7,1522.1,401.6,1522.1,396.4z"/>
		<path class="st0" d="M1616,422.2c-2.2-3.7-4.7-7.8-7.5-12c-2.8-4.3-5.6-8.6-8.6-13c-2.9-4.4-5.9-8.6-9-12.7
			c-3-4.1-5.9-7.8-8.7-11.1v48.8h-12.2v-68.1h10.1c2.6,2.8,5.4,6,8.5,9.8c3,3.8,6,7.7,9.1,11.7c3,4.1,6,8.1,8.8,12.2
			c2.9,4.1,5.4,7.9,7.6,11.5v-45.2h12.3v68.1H1616z"/>
		<path class="st0" d="M1688.8,396.4c0,4.1-0.6,7.8-1.8,11.1c-1.2,3.3-2.9,6.2-5,8.6c-2.2,2.4-4.8,4.2-7.8,5.5s-6.4,2-10.1,2
			c-3.7,0-7-0.7-10-2c-3-1.3-5.6-3.1-7.8-5.5c-2.2-2.4-3.9-5.2-5.1-8.6c-1.2-3.3-1.8-7-1.8-11.1c0-4.1,0.6-7.8,1.8-11.1
			c1.2-3.3,2.9-6.1,5.1-8.5c2.2-2.4,4.8-4.2,7.8-5.5c3-1.3,6.3-1.9,9.9-1.9c3.6,0,6.9,0.6,10,1.9c3,1.3,5.7,3.1,7.8,5.5
			s3.8,5.2,5.1,8.5C1688.2,388.7,1688.8,392.4,1688.8,396.4z M1676.6,396.4c0-5.1-1.1-9.2-3.3-12.1c-2.2-3-5.3-4.5-9.2-4.5
			c-3.9,0-7,1.5-9.2,4.5c-2.2,3-3.3,7-3.3,12.1c0,5.2,1.1,9.3,3.3,12.3c2.2,3,5.3,4.5,9.2,4.5c3.9,0,7-1.5,9.2-4.5
			C1675.5,405.7,1676.6,401.6,1676.6,396.4z"/>
		<path class="st0" d="M1730.4,381.5c-1-0.3-2.3-0.7-4.1-1c-1.7-0.4-3.8-0.5-6-0.5c-1.3,0-2.7,0.1-4.2,0.4c-1.5,0.3-2.5,0.5-3.1,0.7
			v41.2h-11.9v-49c2.3-0.9,5.2-1.7,8.6-2.4c3.4-0.8,7.3-1.1,11.5-1.1c0.8,0,1.7,0,2.8,0.1c1,0.1,2.1,0.2,3.1,0.4
			c1,0.2,2.1,0.4,3,0.6c1,0.2,1.8,0.4,2.4,0.6L1730.4,381.5z"/>
		<path class="st0" d="M1740.1,357.2l11.9-2v15.5h18.3v9.9H1752v20.9c0,4.1,0.7,7.1,2,8.8c1.3,1.8,3.5,2.7,6.7,2.7
			c2.2,0,4.1-0.2,5.8-0.7c1.7-0.5,3-0.9,4-1.3l2,9.4c-1.4,0.6-3.2,1.2-5.4,1.8c-2.2,0.6-4.9,0.9-7.9,0.9c-3.7,0-6.7-0.5-9.2-1.5
			s-4.4-2.4-5.8-4.3c-1.4-1.9-2.5-4.1-3-6.8c-0.6-2.7-0.9-5.7-0.9-9.1V357.2z"/>
		<path class="st0" d="M1778.1,396.7c0-4.5,0.7-8.5,2-11.9c1.3-3.4,3.1-6.2,5.4-8.5c2.2-2.3,4.8-4,7.7-5.1c2.9-1.1,5.8-1.7,8.8-1.7
			c7.1,0,12.6,2.2,16.6,6.6c4,4.4,5.9,10.9,5.9,19.7c0,0.7,0,1.4,0,2.2c0,0.8-0.1,1.6-0.1,2.2h-33.9c0.3,4.1,1.8,7.3,4.4,9.6
			c2.6,2.3,6.3,3.4,11.3,3.4c2.9,0,5.5-0.3,7.9-0.8c2.4-0.5,4.3-1.1,5.7-1.7l1.6,9.7c-0.7,0.3-1.6,0.7-2.7,1c-1.1,0.4-2.5,0.7-3.9,1
			c-1.5,0.3-3.1,0.5-4.8,0.7c-1.7,0.2-3.4,0.3-5.2,0.3c-4.5,0-8.5-0.7-11.8-2s-6.1-3.2-8.3-5.6c-2.2-2.4-3.8-5.2-4.8-8.5
			C1778.6,404.2,1778.1,400.6,1778.1,396.7z M1812.6,391.4c0-1.6-0.2-3.2-0.7-4.7c-0.5-1.5-1.1-2.8-2-3.8c-0.9-1.1-2-1.9-3.2-2.6
			c-1.3-0.6-2.8-0.9-4.6-0.9c-1.8,0-3.4,0.3-4.8,1c-1.4,0.7-2.5,1.6-3.5,2.7c-1,1.1-1.7,2.4-2.2,3.8c-0.5,1.4-0.9,2.9-1.1,4.4
			H1812.6z"/>
	</g>
</g>
</svg>
